<svg id="visual" viewBox="0 0 900 600" width="900" height="600" xmlns="http://www.w3.org/2000/svg" xmlns:xlink="http://www.w3.org/1999/xlink" version="1.1"><path d="M0 217L13.7 202C27.3 187 54.7 157 82 153C109.3 149 136.7 171 163.8 168C191 165 218 137 245.2 124C272.3 111 299.7 113 327 120C354.3 127 381.7 139 409 154C436.3 169 463.7 187 491 192C518.3 197 545.7 189 573 187C600.3 185 627.7 189 654.8 185C682 181 709 169 736.2 151C763.3 133 790.7 109 818 105C845.3 101 872.7 117 886.3 125L900 133L900 0L886.3 0C872.7 0 845.3 0 818 0C790.7 0 763.3 0 736.2 0C709 0 682 0 654.8 0C627.7 0 600.3 0 573 0C545.7 0 518.3 0 491 0C463.7 0 436.3 0 409 0C381.7 0 354.3 0 327 0C299.7 0 272.3 0 245.2 0C218 0 191 0 163.8 0C136.7 0 109.3 0 82 0C54.7 0 27.3 0 13.7 0L0 0Z" fill="#6198ff"></path><path d="M0 253L13.7 249C27.3 245 54.7 237 82 238C109.3 239 136.7 249 163.8 238C191 227 218 195 245.2 186C272.3 177 299.7 191 327 206C354.3 221 381.7 237 409 244C436.3 251 463.7 249 491 253C518.3 257 545.7 267 573 266C600.3 265 627.7 253 654.8 240C682 227 709 213 736.2 197C763.3 181 790.7 163 818 166C845.3 169 872.7 193 886.3 205L900 217L900 131L886.3 123C872.7 115 845.3 99 818 103C790.7 107 763.3 131 736.2 149C709 167 682 179 654.8 183C627.7 187 600.3 183 573 185C545.7 187 518.3 195 491 190C463.7 185 436.3 167 409 152C381.7 137 354.3 125 327 118C299.7 111 272.3 109 245.2 122C218 135 191 163 163.8 166C136.7 169 109.3 147 82 151C54.7 155 27.3 185 13.7 200L0 215Z" fill="#3c80ff"></path><path d="M0 439L13.7 442C27.3 445 54.7 451 82 458C109.3 465 136.7 473 163.8 479C191 485 218 489 245.2 482C272.3 475 299.7 457 327 447C354.3 437 381.7 435 409 422C436.3 409 463.7 385 491 386C518.3 387 545.7 413 573 408C600.3 403 627.7 367 654.8 365C682 363 709 395 736.2 400C763.3 405 790.7 383 818 379C845.3 375 872.7 389 886.3 396L900 403L900 215L886.3 203C872.7 191 845.3 167 818 164C790.7 161 763.3 179 736.2 195C709 211 682 225 654.8 238C627.7 251 600.3 263 573 264C545.7 265 518.3 255 491 251C463.7 247 436.3 249 409 242C381.7 235 354.3 219 327 204C299.7 189 272.3 175 245.2 184C218 193 191 225 163.8 236C136.7 247 109.3 237 82 236C54.7 235 27.3 243 13.7 247L0 251Z" fill="#0066ff"></path><path d="M0 511L13.7 508C27.3 505 54.7 499 82 503C109.3 507 136.7 521 163.8 529C191 537 218 539 245.2 542C272.3 545 299.7 549 327 547C354.3 545 381.7 537 409 522C436.3 507 463.7 485 491 481C518.3 477 545.7 491 573 488C600.3 485 627.7 465 654.8 461C682 457 709 469 736.2 471C763.3 473 790.7 465 818 463C845.3 461 872.7 465 886.3 467L900 469L900 401L886.3 394C872.7 387 845.3 373 818 377C790.7 381 763.3 403 736.2 398C709 393 682 361 654.8 363C627.7 365 600.3 401 573 406C545.7 411 518.3 385 491 384C463.7 383 436.3 407 409 420C381.7 433 354.3 435 327 445C299.7 455 272.3 473 245.2 480C218 487 191 483 163.8 477C136.7 471 109.3 463 82 456C54.7 449 27.3 443 13.7 440L0 437Z" fill="#0059dd"></path><path d="M0 601L13.7 601C27.3 601 54.7 601 82 601C109.3 601 136.7 601 163.8 601C191 601 218 601 245.2 601C272.3 601 299.7 601 327 601C354.3 601 381.7 601 409 601C436.3 601 463.7 601 491 601C518.3 601 545.7 601 573 601C600.3 601 627.7 601 654.8 601C682 601 709 601 736.2 601C763.3 601 790.7 601 818 601C845.3 601 872.7 601 886.3 601L900 601L900 467L886.3 465C872.7 463 845.3 459 818 461C790.7 463 763.3 471 736.2 469C709 467 682 455 654.8 459C627.7 463 600.3 483 573 486C545.7 489 518.3 475 491 479C463.7 483 436.3 505 409 520C381.7 535 354.3 543 327 545C299.7 547 272.3 543 245.2 540C218 537 191 535 163.8 527C136.7 519 109.3 505 82 501C54.7 497 27.3 503 13.7 506L0 509Z" fill="#004cbb"></path></svg>